<svg xmlns="http://www.w3.org/2000/svg" width="32" height="38" viewBox="0 0 32 38">
  <path d="M10.5 2 C12.5 2 14.5 3.5 14.5 6 L14.5 14 C15.8 12.8 18 12.5 20 13.5 C22.2 14.6 22.8 17 22.5 19 C23.8 20.2 24 22.5 23 24.5 C23.5 26 22.5 28.5 20.5 29.5 L19.5 33.5 C19.5 35 18 36 16.5 36 L7.5 36 C6 36 5 35 5 33.5 L5 25.5 C3 24 1.5 21.5 1.5 18.5 C1.5 14.8 4.5 13.2 7 14.8 L7 6 C7 3.5 8.5 2 10.5 2 Z" fill="#f4f0e8" stroke="#211d17" stroke-width="2.2" stroke-linejoin="round" stroke-linecap="round"/>
  <!-- Finger creases -->
  <path d="M14.5 18.5 C16.5 19 19.5 18.5 21.5 17" fill="none" stroke="#211d17" stroke-width="1.8" stroke-linecap="round"/>
  <path d="M14.5 23.5 C17 24 19.5 23.8 22 22" fill="none" stroke="#211d17" stroke-width="1.8" stroke-linecap="round"/>
  <path d="M14 28 C16.5 28.8 18.5 28 20 27" fill="none" stroke="#211d17" stroke-width="1.8" stroke-linecap="round"/>
  <!-- Thumb crease -->
  <path d="M7 16 C8.5 18.5 9 21.5 8.5 24" fill="none" stroke="#211d17" stroke-width="1.8" stroke-linecap="round"/>
  <!-- Cartoon glove lines / sketch highlights -->
  <path d="M10.5 6 L10.5 13" fill="none" stroke="#211d17" stroke-width="1.2" opacity=".35" stroke-linecap="round"/>
  <path d="M11.5 31 L11.5 34" fill="none" stroke="#211d17" stroke-width="1.2" stroke-linecap="round"/>
  <path d="M14.5 31 L14.5 34" fill="none" stroke="#211d17" stroke-width="1.2" stroke-linecap="round"/>
</svg>
